<svg width="165" height="165" viewBox="0 0 165 165" fill="none" xmlns="http://www.w3.org/2000/svg">
<circle opacity="0.2" cx="82.5" cy="82.5" r="82" stroke="#FE0202"/>
<path d="M82.4997 143.762C48.7194 143.762 21.2373 116.28 21.2373 82.4999C21.2373 48.7196 48.7194 21.2375 82.4997 21.2375C116.28 21.2375 143.762 48.7196 143.762 82.4999C143.762 116.28 116.28 143.762 82.4997 143.762ZM82.4997 21.5981C48.9177 21.5981 21.5978 48.9179 21.5978 82.4999C21.5978 116.082 48.9177 143.402 82.4997 143.402C116.082 143.402 143.402 116.082 143.402 82.4999C143.402 48.9179 116.082 21.5981 82.4997 21.5981Z" fill="#FE0202"/>
<circle cx="81.6834" cy="83.3169" r="40.8416" fill="white"/>
<circle cx="47.7851" cy="132.735" r="3.17574" fill="#EBF0F5" stroke="#FE0202"/>
<path fill-rule="evenodd" clip-rule="evenodd" d="M82.3886 102.738C93.1144 102.738 101.809 94.0426 101.809 83.3168C101.809 72.591 93.1144 63.896 82.3886 63.896C71.6628 63.896 62.9678 72.591 62.9678 83.3168C62.9678 94.0426 71.6628 102.738 82.3886 102.738ZM82.3886 103.738C93.6667 103.738 102.809 94.5949 102.809 83.3168C102.809 72.0387 93.6667 62.896 82.3886 62.896C71.1105 62.896 61.9678 72.0387 61.9678 83.3168C61.9678 94.5949 71.1105 103.738 82.3886 103.738Z" fill="#FE0202"/>
<circle cx="82.3885" cy="80.4002" r="8.25177" stroke="#FE0202"/>
<path d="M69.2598 97.8531C69.2598 97.8531 71.2289 89.1013 82.3874 89.1013C93.5459 89.1013 95.5151 97.8531 95.5151 97.8531" stroke="#FE0202"/>
<circle cx="68.9575" cy="68.4768" r="1.68506" fill="white" stroke="#FE0202" stroke-width="0.75"/>
<circle cx="100.081" cy="91.9116" r="1.68506" fill="white" stroke="#FE0202" stroke-width="0.75"/>
<circle cx="118.849" cy="33.0817" r="3.17574" fill="#EBF0F5" stroke="#FE0202"/>
</svg>
