<svg width="165" height="165" viewBox="0 0 165 165" fill="none" xmlns="http://www.w3.org/2000/svg">
<circle opacity="0.2" cx="82.5" cy="82.5" r="82" stroke="#FE0202"/>
<path d="M82.4987 143.763C48.7184 143.763 21.2363 116.28 21.2363 82.5002C21.2363 48.7199 48.7184 21.2378 82.4987 21.2378C116.279 21.2378 143.761 48.7199 143.761 82.5002C143.761 116.28 116.279 143.763 82.4987 143.763ZM82.4987 21.5983C48.9167 21.5983 21.5968 48.9182 21.5968 82.5002C21.5968 116.082 48.9167 143.402 82.4987 143.402C116.081 143.402 143.401 116.082 143.401 82.5002C143.401 48.9182 116.081 21.5983 82.4987 21.5983Z" fill="#FE0202"/>
<circle cx="81.6824" cy="83.3169" r="40.8416" fill="white"/>
<rect x="71.7383" y="89.4824" width="28.6319" height="16.2056" fill="white" stroke="#FE0202"/>
<path d="M76.9707 92.8054H96.088V93.7613H76.9707V92.8054Z" fill="#FE0202"/>
<path d="M76.9707 96.6289H96.088V97.5848H76.9707V96.6289Z" fill="#FE0202"/>
<path d="M76.9707 100.453H96.088V101.409H76.9707V100.453Z" fill="#FE0202"/>
<path d="M74.1045 96.6289H75.0604V97.5848H74.1045V96.6289Z" fill="#FE0202"/>
<path d="M74.1064 92.8054H75.0623V93.7613H74.1064V92.8054Z" fill="#FE0202"/>
<path d="M74.1045 100.453H75.0604V101.409H74.1045V100.453Z" fill="#FE0202"/>
<rect x="99.6533" y="95.5686" width="1.63366" height="8.16832" fill="white"/>
<circle cx="100.411" cy="97.9583" r="2.01467" fill="white" stroke="#FE0202" stroke-width="0.75"/>
<rect x="-0.5" y="0.5" width="28.6319" height="16.2056" transform="matrix(-1 0 0 1 89.3574 76.5559)" fill="white" stroke="#FE0202"/>
<path d="M67.416 80.3792H86.5334V81.335H67.416V80.3792Z" fill="#FE0202"/>
<path d="M67.416 84.2029H86.5334V85.1587H67.416V84.2029Z" fill="#FE0202"/>
<path d="M67.416 88.0261H86.5334V88.982H67.416V88.0261Z" fill="#FE0202"/>
<path d="M64.5488 84.2029H65.5047V85.1587H64.5488V84.2029Z" fill="#FE0202"/>
<path d="M64.5488 80.3792H65.5047V81.335H64.5488V80.3792Z" fill="#FE0202"/>
<path d="M64.5488 88.0261H65.5047V88.982H64.5488V88.0261Z" fill="#FE0202"/>
<rect x="72.6943" y="61.7622" width="28.6319" height="16.2056" fill="white" stroke="#FE0202"/>
<path d="M77.9277 65.0859H97.0451V66.0418H77.9277V65.0859Z" fill="#FE0202"/>
<path d="M77.9277 68.9094H97.0451V69.8653H77.9277V68.9094Z" fill="#FE0202"/>
<path d="M77.9277 72.7327H97.0451V73.6885H77.9277V72.7327Z" fill="#FE0202"/>
<path d="M75.0615 68.9094H76.0174V69.8653H75.0615V68.9094Z" fill="#FE0202"/>
<path d="M75.0635 65.0859H76.0193V66.0418H75.0635V65.0859Z" fill="#FE0202"/>
<path d="M75.0615 72.7327H76.0174V73.6885H75.0615V72.7327Z" fill="#FE0202"/>
<rect x="100.473" y="68.6138" width="1.63366" height="4.08416" fill="white"/>
<circle cx="101.349" cy="66.9194" r="2.01467" fill="white" stroke="#FE0202" stroke-width="0.75"/>
<circle cx="126.458" cy="38.7998" r="3.17574" fill="#EBF0F5" stroke="#FE0202"/>
<circle cx="47.7841" cy="132.735" r="3.17574" fill="#EBF0F5" stroke="#FE0202"/>
</svg>
