<svg width="165" height="165" viewBox="0 0 165 165" fill="none" xmlns="http://www.w3.org/2000/svg">
<circle opacity="0.3" cx="82.5" cy="82.5" r="82" stroke="white"/>
<path d="M82.5007 143.762C48.7204 143.762 21.2383 116.28 21.2383 82.4999C21.2383 48.7196 48.7204 21.2375 82.5007 21.2375C116.281 21.2375 143.763 48.7196 143.763 82.4999C143.763 116.28 116.281 143.762 82.5007 143.762ZM82.5007 21.5981C48.9186 21.5981 21.5988 48.9179 21.5988 82.4999C21.5988 116.082 48.9186 143.402 82.5007 143.402C116.083 143.402 143.403 116.082 143.403 82.4999C143.403 48.9179 116.083 21.5981 82.5007 21.5981Z" fill="white"/>
<circle cx="82.4998" cy="82.5" r="40.3416" stroke="white"/>
<circle cx="82.4998" cy="82.5" r="40.3416" stroke="white"/>
<path d="M101.341 86.8808L101.332 86.8656C100.928 86.2493 100.31 85.8039 99.5969 85.6148C98.8841 85.4257 98.1267 85.5062 97.4695 85.8408L93.4182 87.9126C92.933 87.2314 92.2191 86.7473 91.4067 86.5485C90.5943 86.3497 89.7376 86.4494 88.9926 86.8296L83.8905 89.4445C83.6244 89.5816 83.3291 89.6522 83.0297 89.6503C82.7303 89.6485 82.4359 89.5741 82.1715 89.4337L78.6942 87.5876C77.3783 86.8851 75.8935 86.561 74.4045 86.6512C72.9155 86.7413 71.4806 87.2423 70.2591 88.0985L69.8665 86.2258C69.8493 86.1443 69.8163 86.067 69.7692 85.9983C69.7221 85.9296 69.6619 85.8709 69.592 85.8255C69.5222 85.7802 69.444 85.7491 69.3621 85.734C69.2802 85.7189 69.1962 85.7202 69.1147 85.7377L64.2118 86.7954C64.0486 86.8306 63.9059 86.929 63.815 87.069C63.724 87.209 63.6921 87.3793 63.7263 87.5427L66.5808 101.144C66.6099 101.286 66.6873 101.415 66.7999 101.507C66.9126 101.599 67.0535 101.649 67.1991 101.65C67.2437 101.649 67.2882 101.645 67.3318 101.636L72.2373 100.58C72.4006 100.545 72.5434 100.446 72.6344 100.306C72.7254 100.166 72.7572 99.9955 72.7229 99.832L72.47 98.6149L74.146 98.2539C74.6345 98.1495 75.1373 98.1302 75.6324 98.197L83.515 99.0613C85.1516 99.2777 86.8108 98.8883 88.1802 97.9663L100.808 89.4944C101.221 89.2149 101.508 88.7849 101.607 88.2964C101.707 87.8079 101.612 87.2998 101.341 86.8808ZM67.6872 100.263L65.095 87.8993L68.7619 87.109L71.3541 99.4729L67.6872 100.263ZM100.104 88.4462L87.4765 96.918C86.3569 97.6691 85.0009 97.984 83.6648 97.8032L75.7822 96.9389C75.1479 96.8534 74.5035 96.8791 73.8779 97.0148L72.2076 97.3739L70.541 89.4445L70.9728 89.1435C72.004 88.418 73.2162 87.9928 74.4746 87.9153C75.733 87.8379 76.9883 88.1111 78.1006 88.7048L81.5778 90.5509C82.0222 90.7871 82.5172 90.9122 83.0204 90.9156C83.5236 90.919 84.0202 90.8006 84.4678 90.5705L89.5711 87.9524C90.0812 87.6917 90.672 87.6367 91.2215 87.7988C91.771 87.9609 92.2373 88.3278 92.5242 88.8236C92.6085 88.9688 92.6322 89.1413 92.5903 89.3038C92.5484 89.4664 92.4443 89.6059 92.3004 89.6923L85.265 93.865C84.035 94.5986 82.5697 94.8307 81.1732 94.513L74.8282 92.9957L74.5348 94.226L80.8856 95.7434C82.5997 96.1361 84.3993 95.8528 85.9099 94.9524L92.9453 90.7797C93.2335 90.6068 93.4706 90.3603 93.6322 90.0656C93.7938 89.7708 93.8742 89.4385 93.8652 89.1024L98.043 86.9649C98.4213 86.7728 98.857 86.7265 99.2672 86.8348C99.6775 86.9431 100.034 87.1984 100.268 87.5522L100.275 87.563C100.366 87.7037 100.399 87.8743 100.367 88.0389C100.335 88.2036 100.241 88.3495 100.104 88.4462Z" fill="white"/>
<circle cx="125.384" cy="38.7993" r="3.17574" fill="#E80909" stroke="white"/>
<circle cx="47.7841" cy="132.735" r="3.17574" fill="#E80909" stroke="white"/>
<path d="M83.3561 66.9131L83.3582 66.9131C84.2737 66.9132 85.1718 67.198 85.9391 67.7361C86.7068 68.2746 87.3105 69.0437 87.6683 69.9504C88.0261 70.8572 88.1202 71.857 87.9372 72.8219C87.7542 73.7866 87.3036 74.6681 86.6474 75.3565L86.6451 75.359L79.3867 83.0437L72.1189 75.418C70.2819 73.4895 70.2821 70.3362 72.1188 68.4088L72.1189 68.4087C72.9926 67.4915 74.1684 66.9808 75.388 66.9752C76.6075 66.9696 77.7872 67.4694 78.6683 68.3782C78.8457 68.5613 79.0927 68.6704 79.3575 68.6693C79.6223 68.6681 79.8682 68.5569 80.044 68.3725L80.0685 68.3468L80.07 68.3452C80.5039 67.8872 81.0181 67.5261 81.5818 67.2811C82.1454 67.0361 82.7484 66.9113 83.3561 66.9131Z" stroke="white" stroke-width="1.5"/>
</svg>
