<svg width="171" height="171" viewBox="0 0 171 171" fill="none" xmlns="http://www.w3.org/2000/svg">
<circle cx="85.5" cy="85.5" r="85" fill="#202634" stroke="#F2F2F2"/>
<circle cx="145.243" cy="23.8547" r="4.35471" transform="rotate(-90 145.243 23.8547)" fill="#202634" stroke="#F2F2F2"/>
<circle cx="48.1321" cy="161.077" r="4.35471" transform="rotate(-90 48.1321 161.077)" fill="#202634" stroke="#F2F2F2"/>
<circle cx="119.909" cy="6.96583" r="4.35471" transform="rotate(-90 119.909 6.96583)" fill="#202634" stroke="#F2F2F2"/>
<circle cx="22.8" cy="144.188" r="4.35471" transform="rotate(-90 22.8 144.188)" fill="#202634" stroke="#F2F2F2"/>
<circle cx="84.7848" cy="84.8277" r="55.5172" fill="#202634" stroke="#F2F2F2"/>
<mask id="path-7-inside-1" fill="white">
<path fill-rule="evenodd" clip-rule="evenodd" d="M81.5816 52.7778H89.4166V58.2893C93.7938 58.9393 97.8211 60.6619 101.223 63.1813L105.121 59.2826L110.662 64.8229L106.763 68.7216C109.282 72.123 111.005 76.15 111.655 80.527H117.165V88.362H111.655C111.005 92.7393 109.282 96.7666 106.762 100.168L110.66 104.066L105.12 109.606L101.222 105.708C97.8205 108.227 93.7935 109.95 89.4166 110.6V116.111H81.5816V110.6C77.2048 109.949 73.1779 108.227 69.7766 105.708L65.8781 109.606L60.3379 104.066L64.2364 100.168C61.717 96.7662 59.9944 92.739 59.3444 88.362H53.832L53.832 80.527H59.3444C59.9943 76.1503 61.7167 72.1234 64.2358 68.7221L60.3365 64.8229L65.8767 59.2826L69.7758 63.1817C73.1773 60.6622 77.2045 58.9395 81.5816 58.2894V52.7778Z"/>
</mask>
<path fill-rule="evenodd" clip-rule="evenodd" d="M81.5816 52.7778H89.4166V58.2893C93.7938 58.9393 97.8211 60.6619 101.223 63.1813L105.121 59.2826L110.662 64.8229L106.763 68.7216C109.282 72.123 111.005 76.15 111.655 80.527H117.165V88.362H111.655C111.005 92.7393 109.282 96.7666 106.762 100.168L110.66 104.066L105.12 109.606L101.222 105.708C97.8205 108.227 93.7935 109.95 89.4166 110.6V116.111H81.5816V110.6C77.2048 109.949 73.1779 108.227 69.7766 105.708L65.8781 109.606L60.3379 104.066L64.2364 100.168C61.717 96.7662 59.9944 92.739 59.3444 88.362H53.832L53.832 80.527H59.3444C59.9943 76.1503 61.7167 72.1234 64.2358 68.7221L60.3365 64.8229L65.8767 59.2826L69.7758 63.1817C73.1773 60.6622 77.2045 58.9395 81.5816 58.2894V52.7778Z" fill="#202634"/>
<path d="M89.4166 52.7778H90.4166V51.7778H89.4166V52.7778ZM81.5816 52.7778V51.7778H80.5816V52.7778H81.5816ZM89.4166 58.2893H88.4166V59.1518L89.2698 59.2784L89.4166 58.2893ZM101.223 63.1813L100.627 63.9849L101.32 64.498L101.93 63.8884L101.223 63.1813ZM105.121 59.2826L105.828 58.5755L105.121 57.8684L104.414 58.5755L105.121 59.2826ZM110.662 64.8229L111.369 65.53L112.076 64.8229L111.369 64.1157L110.662 64.8229ZM106.763 68.7216L106.056 68.0145L105.446 68.624L105.959 69.3168L106.763 68.7216ZM111.655 80.527L110.665 80.6739L110.792 81.527H111.655V80.527ZM117.165 80.527H118.165V79.527H117.165V80.527ZM117.165 88.362V89.362H118.165V88.362H117.165ZM111.655 88.362V87.362H110.792L110.665 88.2151L111.655 88.362ZM106.762 100.168L105.959 99.5729L105.446 100.266L106.055 100.875L106.762 100.168ZM110.66 104.066L111.367 104.773L112.074 104.066L111.367 103.359L110.66 104.066ZM105.12 109.606L104.413 110.313L105.12 111.02L105.827 110.313L105.12 109.606ZM101.222 105.708L101.929 105.001L101.319 104.392L100.627 104.905L101.222 105.708ZM89.4166 110.6L89.2698 109.61L88.4166 109.737V110.6H89.4166ZM89.4166 116.111V117.111H90.4166V116.111H89.4166ZM81.5816 116.111H80.5816V117.111H81.5816V116.111ZM81.5816 110.6H82.5816V109.737L81.7285 109.61L81.5816 110.6ZM69.7766 105.708L70.3718 104.904L69.6791 104.391L69.0695 105.001L69.7766 105.708ZM65.8781 109.606L65.171 110.313L65.8781 111.02L66.5852 110.313L65.8781 109.606ZM60.3379 104.066L59.6308 103.359L58.9237 104.066L59.6308 104.773L60.3379 104.066ZM64.2364 100.168L64.9435 100.875L65.553 100.265L65.04 99.5724L64.2364 100.168ZM59.3444 88.362L60.3335 88.2151L60.2069 87.362H59.3444V88.362ZM53.832 88.362H52.832V89.362H53.832V88.362ZM53.832 80.527V79.527H52.832V80.527H53.832ZM59.3444 80.527V81.527H60.2068L60.3335 80.6739L59.3444 80.527ZM64.2358 68.7221L65.0394 69.3173L65.5524 68.6246L64.9429 68.015L64.2358 68.7221ZM60.3365 64.8229L59.6294 64.1157L58.9223 64.8229L59.6294 65.53L60.3365 64.8229ZM65.8767 59.2826L66.5838 58.5755L65.8767 57.8684L65.1696 58.5755L65.8767 59.2826ZM69.7758 63.1817L69.0687 63.8889L69.6783 64.4984L70.371 63.9853L69.7758 63.1817ZM81.5816 58.2894L81.7285 59.2785L82.5816 59.1518V58.2894H81.5816ZM89.4166 51.7778H81.5816V53.7778H89.4166V51.7778ZM90.4166 58.2893V52.7778H88.4166V58.2893H90.4166ZM101.818 62.3777C98.288 59.7633 94.1075 57.9749 89.5635 57.3001L89.2698 59.2784C93.4801 59.9036 97.3542 61.5605 100.627 63.9849L101.818 62.3777ZM101.93 63.8884L105.828 59.9897L104.414 58.5755L100.516 62.4742L101.93 63.8884ZM104.414 59.9897L109.954 65.53L111.369 64.1157L105.828 58.5755L104.414 59.9897ZM109.954 64.1157L106.056 68.0145L107.47 69.4287L111.369 65.53L109.954 64.1157ZM112.644 80.3801C111.969 75.8363 110.181 71.6561 107.566 68.1264L105.959 69.3168C108.383 72.5898 110.04 76.4637 110.665 80.6739L112.644 80.3801ZM117.165 79.527H111.655V81.527H117.165V79.527ZM118.165 88.362V80.527H116.165V88.362H118.165ZM111.655 89.362H117.165V87.362H111.655V89.362ZM107.566 100.763C110.18 97.2335 111.969 93.053 112.644 88.5089L110.665 88.2151C110.04 92.4256 108.383 96.2997 105.959 99.5729L107.566 100.763ZM111.367 103.359L107.469 99.461L106.055 100.875L109.953 104.773L111.367 103.359ZM105.827 110.313L111.367 104.773L109.953 103.359L104.413 108.899L105.827 110.313ZM100.515 106.415L104.413 110.313L105.827 108.899L101.929 105.001L100.515 106.415ZM89.5635 111.589C94.1072 110.914 98.2873 109.126 101.817 106.512L100.627 104.905C97.3536 107.329 93.4798 108.985 89.2698 109.61L89.5635 111.589ZM90.4166 116.111V110.6H88.4166V116.111H90.4166ZM81.5816 117.111H89.4166V115.111H81.5816V117.111ZM80.5816 110.6V116.111H82.5816V110.6H80.5816ZM69.1814 106.511C72.711 109.126 76.8911 110.914 81.4347 111.589L81.7285 109.61C77.5185 108.985 73.6448 107.328 70.3718 104.904L69.1814 106.511ZM69.0695 105.001L65.171 108.899L66.5852 110.313L70.4837 106.415L69.0695 105.001ZM66.5852 108.899L61.045 103.359L59.6308 104.773L65.171 110.313L66.5852 108.899ZM61.045 104.773L64.9435 100.875L63.5293 99.4605L59.6308 103.359L61.045 104.773ZM58.3552 88.5089C59.03 93.0527 60.8184 97.2331 63.4328 100.763L65.04 99.5724C62.6156 96.2993 60.9588 92.4253 60.3335 88.2151L58.3552 88.5089ZM53.832 89.362H59.3444V87.362H53.832V89.362ZM52.832 80.527L52.832 88.362H54.832L54.832 80.527H52.832ZM59.3444 79.527H53.832V81.527H59.3444V79.527ZM63.4322 68.127C60.8181 71.6565 59.03 75.8366 58.3552 80.3801L60.3335 80.6739C60.9587 76.464 62.6153 72.5903 65.0394 69.3173L63.4322 68.127ZM59.6294 65.53L63.5287 69.4293L64.9429 68.015L61.0436 64.1157L59.6294 65.53ZM65.1696 58.5755L59.6294 64.1157L61.0436 65.53L66.5838 59.9897L65.1696 58.5755ZM70.4829 62.4746L66.5838 58.5755L65.1696 59.9897L69.0687 63.8889L70.4829 62.4746ZM81.4347 57.3002C76.8907 57.9751 72.7103 59.7636 69.1806 62.3782L70.371 63.9853C73.6442 61.5608 77.5182 59.9039 81.7285 59.2785L81.4347 57.3002ZM80.5816 52.7778V58.2894H82.5816V52.7778H80.5816Z" fill="#F2F2F2" mask="url(#path-7-inside-1)"/>
<circle cx="85.8541" cy="84.8003" r="18.7135" fill="#202634" stroke="#F2F2F2"/>
<path d="M96.7403 84.4559C96.7403 90.6859 91.8517 95.709 85.8545 95.709C79.8573 95.709 74.9688 90.6859 74.9688 84.4559C74.9688 78.226 79.8573 73.2029 85.8545 73.2029C91.8517 73.2029 96.7403 78.226 96.7403 84.4559Z" fill="#202634" stroke="#F2F2F2"/>
<rect x="127.879" y="3.16667" width="20.7173" height="14.241" transform="rotate(31.998 127.879 3.16667)" fill="#1F2533"/>
<rect x="31.1875" y="140.389" width="20.7173" height="14.241" transform="rotate(34.0157 31.1875 140.389)" fill="#1F2533"/>
</svg>
