<svg width="171" height="171" viewBox="0 0 171 171" fill="none" xmlns="http://www.w3.org/2000/svg">
<circle cx="145.243" cy="23.8547" r="4.35471" transform="rotate(-90 145.243 23.8547)" stroke="#F2F2F2"/>
<circle cx="48.1321" cy="161.077" r="4.35471" transform="rotate(-90 48.1321 161.077)" fill="#202634" stroke="#F2F2F2"/>
<circle cx="119.91" cy="6.96583" r="4.35471" transform="rotate(-90 119.91 6.96583)" stroke="#F2F2F2"/>
<circle cx="22.799" cy="144.188" r="4.35471" transform="rotate(-90 22.799 144.188)" fill="#202634" stroke="#F2F2F2"/>
<circle cx="84.7848" cy="84.8277" r="55.5172" stroke="#F2F2F2"/>
<path fill-rule="evenodd" clip-rule="evenodd" d="M85.5 0C96.0341 0 106.123 1.90503 115.442 5.38937L114.901 6.25525C105.744 2.85685 95.839 1 85.5 1C38.8319 1 1 38.8319 1 85.5C1 106.14 8.40004 125.051 20.6917 139.726L20.1099 140.588C7.56196 125.709 0 106.488 0 85.5C0 38.2797 38.2797 0 85.5 0ZM51.6364 164.032C62.0206 168.516 73.4702 171 85.5 171C132.72 171 171 132.72 171 85.5C171 63.1803 162.448 42.8581 148.441 27.6317L147.891 28.5117C161.623 43.5374 170 63.5405 170 85.5C170 132.168 132.168 170 85.5 170C73.6778 170 62.4227 167.572 52.2059 163.188L51.6364 164.032Z" fill="#F2F2F2"/>
<circle cx="86.0003" cy="79.3333" r="22.8333" stroke="#F2F2F2"/>
<path d="M51 126C51 126 56.25 102.667 86 102.667C115.75 102.667 121 126 121 126" stroke="#F2F2F2"/>
</svg>
