<svg width="172" height="171" viewBox="0 0 172 171" fill="none" xmlns="http://www.w3.org/2000/svg">
<path fill-rule="evenodd" clip-rule="evenodd" d="M70.3163 104.74V107.013H101.207V104.74L101.611 104.507C111.431 98.8414 117.46 88.4833 117.46 77.0877C117.46 59.614 103.24 45.3976 85.7615 45.3976C68.2834 45.3976 54.0635 59.614 54.0635 77.0877C54.0635 88.4807 60.0925 98.8414 69.9124 104.507L70.3163 104.74ZM102.014 107.82H69.5087V105.206C59.4401 99.3972 53.2559 88.7705 53.2559 77.0877C53.2559 59.1681 67.8374 44.5902 85.7615 44.5902C103.686 44.5902 118.267 59.1681 118.267 77.0877C118.267 88.7733 112.083 99.3972 102.014 105.206V107.82ZM85.7615 86.0195C80.827 86.0195 76.8275 82.021 76.8275 77.0877C76.8275 72.1544 80.827 68.1559 85.7615 68.1559C90.696 68.1559 94.6955 72.1544 94.6955 77.0877C94.6955 82.021 90.696 86.0195 85.7615 86.0195ZM77.6351 77.0877C77.6351 81.5751 81.273 85.2121 85.7615 85.2121C90.25 85.2121 93.8879 81.5751 93.8879 77.0877C93.8879 72.6004 90.25 68.9633 85.7615 68.9633C81.273 68.9633 77.6351 72.6004 77.6351 77.0877Z" fill="#F2F2F2"/>
<circle cx="52.0999" cy="26.9813" r="4.35471" transform="rotate(-166.236 52.0999 26.9813)" stroke="#F2F2F2"/>
<circle cx="149.1" cy="113.981" r="4.35471" transform="rotate(-166.236 149.1 113.981)" stroke="#F2F2F2"/>
<circle cx="32.0999" cy="45.5686" r="4.35471" transform="rotate(-166.236 32.0999 45.5686)" stroke="#F2F2F2"/>
<circle cx="129.1" cy="132.569" r="4.35471" transform="rotate(-166.236 129.1 132.569)" stroke="#F2F2F2"/>
<path fill-rule="evenodd" clip-rule="evenodd" d="M67.5861 167.756C46.3447 172.008 26.986 168.149 14.3782 155.382C1.77043 142.615 -1.84533 123.209 2.67221 102.023C6.39271 84.5743 15.6218 65.9901 29.7811 49.0988L29.2138 48.5163C-2.34314 86.1208 -9.66638 132.185 13.8026 155.95C38.3857 180.844 87.8566 172.262 126.774 137.298L126.209 136.718C107.752 153.293 86.9321 163.884 67.5861 167.756ZM150.601 108.746L151.178 109.338C174.633 74.4661 178.219 35.4854 157.27 14.2718C134.97 -8.3097 92.1905 -3.34513 55.3865 23.8707L55.9561 24.4556C71.423 13.0362 87.9311 5.57893 103.487 2.4656C124.728 -1.78574 144.087 2.07323 156.694 14.8402C169.302 27.6072 172.918 47.0128 168.4 68.1992C165.57 81.4725 159.552 95.4031 150.601 108.746Z" fill="#F2F2F2"/>
<path fill-rule="evenodd" clip-rule="evenodd" d="M103.487 167.756C124.728 172.008 144.087 168.149 156.694 155.382C169.302 142.615 172.918 123.209 168.4 102.023C165.113 86.6044 157.524 70.299 146.032 55.0587L146.611 54.483C174.098 90.8793 179.511 133.428 157.27 155.95C132.654 180.877 83.085 172.239 44.1441 137.159L44.7186 136.588C63.2121 153.238 84.0899 163.874 103.487 167.756ZM21.4525 110.188C11.9592 96.4098 5.60463 81.9517 2.67221 68.1992C-1.84533 47.0128 1.77043 27.6072 14.3782 14.8402C26.986 2.07323 46.3447 -1.78574 67.5861 2.4656C84.8382 5.9185 103.262 14.7146 120.138 28.3331L120.715 27.7593C82.8534 -2.83122 37.1264 -9.34643 13.8026 14.2718C-7.43326 35.7759 -3.45799 75.5369 20.8696 110.768L21.4525 110.188Z" fill="#F2F2F2"/>
<path fill-rule="evenodd" clip-rule="evenodd" d="M87.9869 84.8157C88.5133 84.7345 88.8775 84.6657 88.8775 84.6657V107.82H81.7529V84.6657C81.7529 84.6657 82.1171 84.7345 82.6435 84.8157C83.3991 84.9322 84.4889 85.074 85.3152 85.074C86.1415 85.074 87.2313 84.9322 87.9869 84.8157ZM87.9869 85.6433C87.9133 85.6544 87.8372 85.6655 87.759 85.6767C87.0355 85.7799 86.0885 85.8905 85.3152 85.8905C84.5419 85.8905 83.5949 85.7799 82.8714 85.6767C82.7932 85.6655 82.7171 85.6544 82.6435 85.6433V107.004H87.9869V85.6433Z" fill="#F2F2F2"/>
<path fill-rule="evenodd" clip-rule="evenodd" d="M98.1727 107.761H72.4576C69.6602 107.761 67.3925 110.18 67.3925 113.164C67.3925 116.148 69.6602 118.567 72.4576 118.567H98.1727C100.97 118.567 103.238 116.148 103.238 113.164C103.238 110.18 100.97 107.761 98.1727 107.761ZM72.4576 106.93C69.2299 106.93 66.6133 109.721 66.6133 113.164C66.6133 116.607 69.2299 119.398 72.4576 119.398H98.1727C101.4 119.398 104.017 116.607 104.017 113.164C104.017 109.721 101.4 106.93 98.1727 106.93H72.4576Z" fill="#F2F2F2"/>
<path fill-rule="evenodd" clip-rule="evenodd" d="M98.1727 119.338H72.4576C69.6602 119.338 67.3925 121.757 67.3925 124.741C67.3925 127.725 69.6602 130.144 72.4576 130.144H98.1727C100.97 130.144 103.238 127.725 103.238 124.741C103.238 121.757 100.97 119.338 98.1727 119.338ZM72.4576 118.507C69.2299 118.507 66.6133 121.298 66.6133 124.741C66.6133 128.184 69.2299 130.975 72.4576 130.975H98.1727C101.4 130.975 104.017 128.184 104.017 124.741C104.017 121.298 101.4 118.507 98.1727 118.507H72.4576Z" fill="#F2F2F2"/>
<circle cx="124.063" cy="30.944" r="4.35471" transform="rotate(103.168 124.063 30.944)" stroke="#F2F2F2"/>
<circle cx="24.0625" cy="112.944" r="4.35471" transform="rotate(103.168 24.0625 112.944)" stroke="#F2F2F2"/>
<circle cx="142.857" cy="50.7495" r="4.35471" transform="rotate(103.168 142.857 50.7495)" stroke="#F2F2F2"/>
<circle cx="42.8574" cy="132.75" r="4.35471" transform="rotate(103.168 42.8574 132.75)" stroke="#F2F2F2"/>
</svg>
