<svg width="171" height="171" viewBox="0 0 171 171" fill="none" xmlns="http://www.w3.org/2000/svg">
<circle cx="145.245" cy="23.8547" r="4.35471" transform="rotate(-90 145.245 23.8547)" fill="#202634" stroke="#F2F2F2"/>
<circle cx="48.134" cy="161.077" r="4.35471" transform="rotate(-90 48.134 161.077)" fill="#202634" stroke="#F2F2F2"/>
<circle cx="119.911" cy="6.96583" r="4.35471" transform="rotate(-90 119.911 6.96583)" fill="#202634" stroke="#F2F2F2"/>
<circle cx="22.8" cy="144.188" r="4.35471" transform="rotate(-90 22.8 144.188)" fill="#202634" stroke="#F2F2F2"/>
<path fill-rule="evenodd" clip-rule="evenodd" d="M85.5 0C96.0721 0 106.196 1.91883 115.543 5.42722L115.002 6.29287C105.817 2.87055 95.8771 1 85.5 1C38.8319 1 1 38.8319 1 85.5C1 106.07 8.34991 124.923 20.5668 139.577L19.9846 140.439C7.51163 125.581 0 106.418 0 85.5C0 38.2797 38.2797 0 85.5 0ZM51.4831 163.965C61.9079 168.491 73.4109 171 85.5 171C132.72 171 171 132.72 171 85.5C171 63.0257 162.329 42.5768 148.149 27.3162L147.6 28.195C161.505 43.2557 170 63.3858 170 85.5C170 132.168 132.168 170 85.5 170C73.6186 170 62.3099 167.548 52.0524 163.122L51.4831 163.965Z" fill="#F2F2F2"/>
<path d="M72.9856 122.891L72.9856 122.887C72.8864 112.001 68.5192 101.589 60.8235 93.8897C48.7562 81.1586 48.3551 61.3362 59.8986 48.1272C72.2542 33.9887 93.7314 32.5427 107.871 44.897C115.078 51.3472 119.197 60.5619 119.196 70.2339V70.2355C119.225 79.3511 115.551 88.0878 109.015 94.4429L109.015 94.4429L109.009 94.4491C101.506 102.006 97.3292 112.244 97.4065 122.893V124.207H72.9856L72.9856 122.891Z" stroke="#F2F2F2"/>
<path d="M83.881 131.368V130.868H83.381H72.9863V128.237H97.4072V130.868H87.0126H86.5126V131.368V134.5H83.881V131.368Z" stroke="#F2F2F2"/>
<path d="M72.9863 121.576H97.4072V127.839H72.9863V121.576Z" stroke="#F2F2F2"/>
<path fill-rule="evenodd" clip-rule="evenodd" d="M88.5148 98.4108C89.0521 98.328 89.4238 98.2577 89.4238 98.2577V121.89H82.1523V98.2577C82.1523 98.2577 82.5241 98.328 83.0613 98.4108C83.8324 98.5297 84.9447 98.6744 85.7881 98.6744C86.6314 98.6744 87.7437 98.5297 88.5148 98.4108ZM88.5148 99.2555C88.4397 99.2667 88.362 99.2781 88.2823 99.2895C87.5438 99.3949 86.5773 99.5078 85.7881 99.5078C84.9988 99.5078 84.0323 99.3949 83.2938 99.2895C83.2141 99.2781 83.1364 99.2667 83.0613 99.2555V121.056H88.5148V99.2555Z" fill="#F2F2F2"/>
<circle cx="85.7003" cy="89.0722" r="9.70619" stroke="#F2F2F2"/>
</svg>
